<svg width="45" height="46" viewBox="0 0 45 46" fill="none" xmlns="http://www.w3.org/2000/svg">
<path fill-rule="evenodd" clip-rule="evenodd" d="M0.321289 22.9651L2.67692 20.6095L3.73412 21.6667L2.4357 22.9651L3.73412 24.2636L2.67692 25.3208L0.321289 22.9651ZM5.29671 19.5978L5.82551 17.4609L4.49268 18.7937L5.29671 19.5978ZM10.5209 12.7655H12.6353L22.4819 2.91891L32.3285 12.7655L34.4429 12.7655L22.4819 0.804504L10.5209 12.7655ZM32.3059 33.1874L22.4819 43.0114L12.9151 33.4445H10.8007L22.4819 45.1258L34.4204 33.1873L32.3059 33.1874ZM39.1127 28.495L39.6508 26.3162L40.4712 27.1365L39.1127 28.495ZM42.5282 22.9651L41.2354 21.6723L42.2926 20.6151L44.6426 22.9651L42.2926 25.3151L41.2354 24.2579L42.5282 22.9651Z" fill="#FFB600"/>
<path fill-rule="evenodd" clip-rule="evenodd" d="M24.1333 31.6923L21.8557 30.2801L24.3666 20.1135H34.889L35.0629 19.2882L37.6709 17.7605H9.81213L11.6299 19.2882L9.50077 27.9091L12.3484 26.5731H15.6742L16.4742 23.4557H13.1479L13.6687 21.4373L16.3599 20.1135H22.02L19.5091 30.2801L16.6494 31.6923H6.37133L4.24951 30.0532L7.75749 15.8495L6.19316 14.2606H23.485L25.4198 15.8495L25.8122 14.2605L39.1035 14.2606L40.7002 15.8495L39.6092 20.2671L37.3311 21.4373L39.0141 22.6604L36.7834 31.6922L24.1333 31.6923ZM30.0288 26.5731L27.2742 27.9091L28.3589 23.4557H34.1546L33.3546 26.5731H30.0288Z" fill="#F0F0F0"/>
</svg>
